<svg width="120" height="26" viewBox="0 0 120 26" fill="none" xmlns="http://www.w3.org/2000/svg">
<path d="M10.0302 2.66544V7.11718H13.9048C13.6575 6.97978 13.4102 6.8149 13.4102 6.8149C13.4102 6.8149 10.4973 5.5783 10.0302 2.66544Z" fill="#B7243E"/>
<path d="M13.4102 17.0924V19.7579L15.2514 19.648L13.4102 17.0924Z" fill="#0E6B7D"/>
<path d="M8.84853 15.9932C8.84853 16.8431 8.15955 17.5321 7.30966 17.5321C6.45976 17.5321 5.77078 16.8431 5.77078 15.9932C5.77078 15.1433 6.45976 14.4543 7.30966 14.4543C8.15955 14.4543 8.84853 15.1433 8.84853 15.9932Z" fill="white"/>
<path d="M8.84853 21.6815C8.84853 22.5314 8.15955 23.2204 7.30966 23.2204C6.45976 23.2204 5.77078 22.5314 5.77078 21.6815C5.77078 20.8316 6.45976 20.1427 7.30966 20.1427C8.15955 20.1427 8.84853 20.8316 8.84853 21.6815Z" fill="#89F3EF"/>
<path fill-rule="evenodd" clip-rule="evenodd" d="M4.7815 14.0874V21.6815C5.87442 20.52 9.09585 17.1489 9.09585 17.1489C9.09585 17.1489 9.76563 16.4577 10.0576 16.1603L10.0851 14.0874H4.7815ZM7.30966 17.5321C8.15955 17.5321 8.84853 16.8431 8.84853 15.9932C8.84853 15.1433 8.15955 14.4543 7.30966 14.4543C6.45976 14.4543 5.77078 15.1433 5.77078 15.9932C5.77078 16.8431 6.45976 17.5321 7.30966 17.5321Z" fill="#1CB1D8"/>
<path fill-rule="evenodd" clip-rule="evenodd" d="M10.0576 19.7579H13.4102V17.0924C11.7088 18.4746 9.09585 17.1489 9.09585 17.1489C9.09585 17.1489 5.87442 20.52 4.7815 21.6815V22.7453C6.29541 23.9615 8.09225 24.8398 10.0576 25.266V19.7579ZM7.30966 23.2204C8.15955 23.2204 8.84853 22.5314 8.84853 21.6815C8.84853 20.8316 8.15955 20.1427 7.30966 20.1427C6.45976 20.1427 5.77078 20.8316 5.77078 21.6815C5.77078 22.5314 6.45976 23.2204 7.30966 23.2204Z" fill="#27D3C5"/>
<path d="M13.4102 14.0874C13.5233 14.1072 13.2966 14.0811 13.4102 14.0874C12.2721 14.1414 10.4262 15.7848 10.0576 16.1603C9.76563 16.4577 9.09585 17.1489 9.09585 17.1489C9.09585 17.1489 11.7088 18.4746 13.4102 17.0924C13.4102 17.0924 13.4102 15.2609 13.4102 14.0874Z" fill="#22DECF"/>
<path d="M10.0851 14.0874L10.0576 16.1603C10.4262 15.7848 12.2721 14.1414 13.4102 14.0874H10.0851Z" fill="#1590A0"/>
<path d="M10.0302 2.66544C10.4973 5.5783 13.4102 6.8149 13.4102 6.8149C13.4102 6.8149 13.6575 6.97978 13.9048 7.11718V2.66544H10.0302Z" fill="#FF3052"/>
<path d="M13.9048 7.11718C14.3583 7.17053 14.7868 7.32291 15.1689 7.53499C15.1689 7.53499 16.7411 5.26533 17.8894 3.59975C16.6803 2.94023 14.2346 2.66544 13.9048 2.66544V7.11718Z" fill="#FA6219"/>
<path d="M15.1689 7.53499C15.8027 7.88673 16.3089 8.40268 16.5903 8.90337L21.4453 6.78742C20.6099 5.38594 18.9886 4.0669 17.8894 3.59975C16.7411 5.26533 15.1689 7.53499 15.1689 7.53499Z" fill="#F88C1D"/>
<path d="M16.5903 8.90337C16.6636 9.0337 16.7217 9.16299 16.7627 9.28809C16.885 9.60541 16.9604 9.9181 16.9946 10.2224L22.1113 8.51865C21.9502 7.91354 21.7281 7.33162 21.4453 6.78742L16.5903 8.90337Z" fill="#FCEAC4"/>
<path d="M16.9946 10.2224C17.0696 10.8896 16.9465 11.5165 16.6854 12.0636L22.3344 12.2284C22.5156 10.9225 22.4406 9.75465 22.1113 8.51865L16.9946 10.2224Z" fill="#FFC888"/>
<path d="M16.6854 12.0636C16.5221 12.4056 16.3049 12.7163 16.0483 12.9862L20.8823 16.1581C21.6584 14.9781 22.1416 13.6185 22.3344 12.2284L16.6854 12.0636Z" fill="#1FC4BF"/>
<path d="M16.0483 12.9862C15.6149 13.442 15.0692 13.781 14.4819 13.9567L18.609 18.4685C19.5361 17.8453 20.2935 17.0534 20.8823 16.1581L16.0483 12.9862Z" fill="#076A7D"/>
<path d="M14.4819 13.9567C14.1344 14.0607 13.7723 14.1075 13.4102 14.0874V17.0924L15.2514 19.648C16.6406 19.4484 17.6128 19.1383 18.609 18.4685L14.4819 13.9567Z" fill="#0A8595"/>
<path d="M4.7815 6.01798C4.7815 6.01798 5.16622 8.13393 6.81502 8.27133C8.46381 8.40873 8.82105 9.50793 8.82105 9.50793V5.77066C8.82105 5.1203 8.41984 3.81959 6.81502 3.81959C5.21019 3.81959 4.79066 5.28518 4.7815 6.01798Z" fill="#FD4535"/>
<path d="M6.81502 8.27133C5.16622 8.13393 4.7815 6.01798 4.7815 6.01798V10.3323C5.41354 12.4208 8.10657 12.7231 8.82105 10.3323V9.50793C8.82105 9.50793 8.46381 8.40873 6.81502 8.27133Z" fill="#F96019"/>
<path fill-rule="evenodd" clip-rule="evenodd" d="M10.0302 7.11718V2.66544H13.9048C14.2346 2.66544 16.6803 2.94023 17.8894 3.59975C18.9886 4.0669 20.6099 5.38594 21.4453 6.78742C21.7281 7.33162 21.9502 7.91354 22.1113 8.51865C22.4406 9.75465 22.5156 10.9225 22.3344 12.2284C22.1416 13.6185 21.6584 14.9781 20.8823 16.1581C20.2935 17.0534 19.5361 17.8453 18.609 18.4685C17.6128 19.1383 16.6406 19.4484 15.2514 19.648L13.4102 19.7579H10.0576V25.266C10.9343 25.4561 11.8446 25.5562 12.7782 25.5562C19.8353 25.5562 25.5563 19.8352 25.5563 12.778C25.5563 5.72085 19.8353 -0.00012207 12.7782 -0.00012207C5.72098 -0.00012207 0 5.72085 0 12.778C0 16.8086 1.86612 20.4033 4.7815 22.7453V21.6815V14.0874H10.0851H13.4102C13.7723 14.1075 14.1344 14.0607 14.4819 13.9567C15.0692 13.781 15.6149 13.442 16.0483 12.9862C16.3049 12.7163 16.5221 12.4056 16.6854 12.0636C16.9465 11.5165 17.0696 10.8896 16.9946 10.2224C16.9604 9.9181 16.885 9.60541 16.7627 9.28809C16.7217 9.16299 16.6636 9.0337 16.5903 8.90337C16.3089 8.40268 15.8027 7.88673 15.1689 7.53499C14.7868 7.32291 14.3583 7.17053 13.9048 7.11718H10.0302ZM4.7815 10.3323V6.01798C4.79066 5.28518 5.21019 3.81959 6.81502 3.81959C8.41984 3.81959 8.82105 5.1203 8.82105 5.77066V9.50793V10.3323C8.10657 12.7231 5.41354 12.4208 4.7815 10.3323ZM13.4102 13.1353C14.7761 13.1353 15.8834 12.028 15.8834 10.6621C15.8834 9.29618 14.7761 8.18889 13.4102 8.18889C12.0443 8.18889 10.937 9.29618 10.937 10.6621C10.937 12.028 12.0443 13.1353 13.4102 13.1353Z" fill="#193A4D"/>
<path d="M15.8834 10.6621C15.8834 12.028 14.7761 13.1353 13.4102 13.1353C12.0443 13.1353 10.937 12.028 10.937 10.6621C10.937 9.29618 12.0443 8.18889 13.4102 8.18889C14.7761 8.18889 15.8834 9.29618 15.8834 10.6621Z" fill="white"/>
<path d="M119.877 3.14856L119.571 5.38729H112.977V12.4102H118.712V14.6489H112.977V22.0398H120V24.2785H110.186V3.14856H119.877Z" fill="#C7EAE8"/>
<path d="M105.124 3.14856L104.817 5.47929H100.125V24.2785H97.3346V5.47929H92.5197V3.14856H105.124Z" fill="#C7EAE8"/>
<path d="M89.4509 3.14856L89.1442 5.47929H84.4521V24.2785H81.6613V5.47929H76.8465V3.14856H89.4509Z" fill="#C7EAE8"/>
<path d="M72.648 3.14856L72.3413 5.38729H65.7478V12.4102H71.4826V14.6489H65.7478V22.0398H72.7707V24.2785H62.9571V3.14856H72.648Z" fill="#C7EAE8"/>
<path d="M50.7335 3.14856V21.8251H57.7564L57.4497 24.2785H47.9427V3.14856H50.7335Z" fill="#C7EAE8"/>
<path d="M39.9496 24.2785L38.6922 18.9117H32.3747L31.1174 24.2785H28.3573L33.8468 3.14856H37.3122L42.8017 24.2785H39.9496ZM32.8961 16.673H38.1709L35.5335 5.47929L32.8961 16.673Z" fill="#C7EAE8"/>
</svg>
